<svg width="681" height="191" viewBox="0 0 681 191" fill="none" xmlns="http://www.w3.org/2000/svg">
<circle cx="520" cy="94.9951" r="46.5" stroke="#00C06B" stroke-width="11"/>
<rect x="555" y="128.418" width="10.9727" height="55.2071" rx="3" transform="rotate(-50.1411 555 128.418)" fill="#00C06B"/>
<path d="M22.5455 48.9042V141.995H11.2727V48.9042H22.5455ZM118.966 48.9042V141.995H108.057L57.3295 68.9042H56.4205V141.995H45.1477V48.9042H56.0568L106.966 122.177H107.875V48.9042H118.966ZM136.432 58.9042V48.9042H206.25V58.9042H176.977V141.995H165.705V58.9042H136.432ZM223.648 141.995V48.9042H279.83V58.9042H234.92V90.3588H276.92V100.359H234.92V131.995H280.557V141.995H223.648ZM300.148 141.995V48.9042H331.602C338.875 48.9042 344.845 50.1466 349.511 52.6315C354.178 55.086 357.633 58.4648 359.875 62.7678C362.117 67.0709 363.239 71.9648 363.239 77.4497C363.239 82.9345 362.117 87.7981 359.875 92.0406C357.633 96.283 354.193 99.6163 349.557 102.041C344.92 104.435 338.996 105.631 331.784 105.631H306.33V95.4497H331.42C336.39 95.4497 340.39 94.7224 343.42 93.2678C346.481 91.8133 348.693 89.7527 350.057 87.086C351.451 84.3891 352.148 81.1769 352.148 77.4497C352.148 73.7224 351.451 70.4648 350.057 67.6769C348.663 64.8891 346.436 62.7375 343.375 61.2224C340.314 59.6769 336.269 58.9042 331.239 58.9042H311.42V141.995H300.148ZM343.966 100.177L366.875 141.995H353.784L331.239 100.177H343.966ZM455.841 48.9042V141.995H444.932L394.205 68.9042H393.295V141.995H382.023V48.9042H392.932L443.841 122.177H444.75V48.9042H455.841Z" fill="#EBEBEB"/>
<path d="M614.727 48.9042L638.727 87.6315H639.455L663.455 48.9042H676.727L647.455 95.4497L676.727 141.995H663.455L639.455 103.995H638.727L614.727 141.995H601.455L631.455 95.4497L601.455 48.9042H614.727Z" fill="#EBEBEB"/>
<rect x="11" y="180.995" width="457" height="10" rx="3" fill="#00C06B"/>
<rect x="474" y="180.995" width="207" height="10" rx="3" fill="#307456"/>
<rect x="680.603" y="10" width="440.601" height="10" rx="3" transform="rotate(179.991 680.603 10)" fill="#00C06B"/>
<rect x="234.001" y="10.0723" width="222.766" height="10" rx="3" transform="rotate(179.991 234.001 10.0723)" fill="#307456"/>
</svg>
